# xmcd
#
# Track frame offsets:
#	150
#	11745
#	27340
#	36942
#	47877
#	60287
#	71477
#	85742
#	96872
#	112965
#	124115
#	135365
#	146590
#	157595
#
# Disc length: 2300 seconds
#
# Revision: 1
# Processed by: cddbd v1.5.1PL2 Copyright (c) Steve Scherf et al.
# Submitted via: audiograbber 1.83.01
#
DISCID=ad08fa0e
DTITLE=Acoustic Sound Orchestra - Country Classics
DYEAR=1998
DGENRE=Instrumental
TTITLE0=Old Smoky
TTITLE1=Help Me Make It Through The Night
TTITLE2=The Yellow Rose Of Texas
TTITLE3=Some Broken Hearts Never Mend
TTITLE4=Oh My Darling Clementine
TTITLE5=Tom Dooley
TTITLE6=For The Good Times
TTITLE7=Jambalaya
TTITLE8=Tennessee Waltz
TTITLE9=Tears Will Be The Chaser
TTITLE10=A Lovely Work Of Art
TTITLE11=Oh Susanna
TTITLE12=Home On The Range
TTITLE13=Rose Garden
EXTD=
EXTT0=
EXTT1=
EXTT2=
EXTT3=
EXTT4=
EXTT5=
EXTT6=
EXTT7=
EXTT8=
EXTT9=
EXTT10=
EXTT11=
EXTT12=
EXTT13=
PLAYORDER=
